HIERARCHY
ROOT Hips
{
	OFFSET -240.519104 89.812180 402.348785
	CHANNELS 6 Xposition Yposition Zposition Zrotation Yrotation Xrotation 
	JOINT LeftUpLeg
	{
		OFFSET 0.103456 1.857834 10.548498
		CHANNELS 3 Zrotation Yrotation Xrotation
		JOINT LeftLeg
		{
			OFFSET 43.499992 -0.000040 -0.000011
			CHANNELS 3 Zrotation Yrotation Xrotation
			JOINT LeftFoot
			{
				OFFSET 42.372192 0.000015 -0.000003
				CHANNELS 3 Zrotation Yrotation Xrotation
				JOINT LeftToe
				{
					OFFSET 17.300003 0.000002 0.000015
					CHANNELS 3 Zrotation Yrotation Xrotation
					End Site
					{
						OFFSET 0.000000 0.000000 0.000000
					}
				}
			}
		}
	}
	JOINT RightUpLeg
	{
		OFFSET 0.103455 1.857831 -10.548502
		CHANNELS 3 Zrotation Yrotation Xrotation
		JOINT RightLeg
		{
			OFFSET 43.500038 -0.000019 0.000008
			CHANNELS 3 Zrotation Yrotation Xrotation
			JOINT RightFoot
			{
				OFFSET 42.372265 -0.000019 0.000008
				CHANNELS 3 Zrotation Yrotation Xrotation
				JOINT RightToe
				{
					OFFSET 17.299984 -0.000007 0.000027
					CHANNELS 3 Zrotation Yrotation Xrotation
					End Site
					{
						OFFSET 0.000000 0.000000 0.000000
					}
				}
			}
		}
	}
	JOINT Spine
	{
		OFFSET 6.901969 -2.603726 -0.000003
		CHANNELS 3 Zrotation Yrotation Xrotation
		JOINT Spine1
		{
			OFFSET 12.588097 -0.000010 0.000004
			CHANNELS 3 Zrotation Yrotation Xrotation
			JOINT Spine2
			{
				OFFSET 12.343201 0.000004 0.000005
				CHANNELS 3 Zrotation Yrotation Xrotation
				JOINT Neck
				{
					OFFSET 25.832905 0.000013 -0.000010
					CHANNELS 3 Zrotation Yrotation Xrotation
					JOINT Head
					{
						OFFSET 11.766600 -0.000021 0.000000
						CHANNELS 3 Zrotation Yrotation Xrotation
						End Site
						{
							OFFSET 0.000000 0.000000 0.000000
						}
					}
				}
				JOINT LeftShoulder
				{
					OFFSET 19.745911 -1.480368 6.000092
					CHANNELS 3 Zrotation Yrotation Xrotation
					JOINT LeftArm
					{
						OFFSET 11.284128 -0.000006 -0.000023
						CHANNELS 3 Zrotation Yrotation Xrotation
						JOINT LeftForeArm
						{
							OFFSET 33.000057 -0.000001 0.000025
							CHANNELS 3 Zrotation Yrotation Xrotation
							JOINT LeftHand
							{
								OFFSET 25.200012 0.000014 0.000015
								CHANNELS 3 Zrotation Yrotation Xrotation
								End Site
								{
									OFFSET 0.000000 0.000000 0.000000
								}
							}
						}
					}
				}
				JOINT RightShoulder
				{
					OFFSET 19.746101 -1.480364 -6.000078
					CHANNELS 3 Zrotation Yrotation Xrotation
					JOINT RightArm
					{
						OFFSET 11.284142 -0.000002 -0.000011
						CHANNELS 3 Zrotation Yrotation Xrotation
						JOINT RightForeArm
						{
							OFFSET 33.000099 0.000007 0.000015
							CHANNELS 3 Zrotation Yrotation Xrotation
							JOINT RightHand
							{
								OFFSET 25.199781 0.000143 0.000408
								CHANNELS 3 Zrotation Yrotation Xrotation
								End Site
								{
									OFFSET 0.000000 0.000000 0.000000
								}
							}
						}
					}
				}
			}
		}
	}
}
MOTION
Frames: 16
Frame Time: 0.033333
318.400787 89.581902 359.875397 92.014813 -1.395269 48.104797 150.596327 -4.626294 170.735796 -34.856692 -0.122243 3.222016 69.59277 -2.281419 0.021647 21.454553 0.0031 2e-06 169.231529 14.175798 177.655051 -71.370737 -6.184364 6.766093 67.95599 -0.951652 10.227055 21.454558 -0.00311 -1.4e-05 6.466835 0.335536 0.580375 2.924232 0.656536 1.16892 2.606182 0.663718 1.164931 -4.575058 -7.312327 -17.720019 -20.936569 1.868321 -20.722661 -148.384289 -84.89113 -33.481184 30.535382 52.133546 42.198948 -120.480302 4.13708 3.343016 -5.171904 -9.47177 6.489225 169.136398 78.066795 -9.610964 6.732529 -43.762193 -34.381075 -103.370603 1.7012 -3.063518 -10.980423 2.285941 -13.513154 
317.174896 86.740883 366.042999 90.588895 0.130674 48.997988 153.036385 -2.900694 169.364963 -43.017737 -0.098353 2.789565 85.103529 -1.204471 3.468094 21.454555 0.003087 0.0 165.571435 13.9814 173.352551 -83.369241 -5.361086 6.065115 70.099331 -0.837127 9.635269 21.454557 -0.003113 -2.3e-05 7.041562 0.212655 0.229788 4.071154 0.417137 0.46683 3.753073 0.420092 0.464309 -2.142578 -4.488006 -17.800545 -24.78737 0.974481 -19.879535 -144.942543 -84.372207 -36.968447 25.253238 56.155623 36.86541 -118.794789 3.979976 3.284965 -5.794532 -8.905417 7.418167 170.952217 77.874668 -7.768797 7.183786 -45.310321 -31.973335 -96.976317 2.21181 -2.813767 -12.030981 3.128634 -16.47652 
316.213104 84.345734 371.896088 90.98706 1.859726 50.344969 153.674475 0.954298 169.902308 -50.745987 -0.026833 1.551119 92.76364 -0.320995 5.394492 21.454555 0.003082 -2e-06 159.433417 14.215392 169.603023 -93.875377 -4.709778 4.742096 71.542263 -0.756543 7.372628 21.454563 -0.003111 -1.9e-05 7.554473 -0.364029 -0.347824 5.098398 -0.712531 -0.711245 4.780304 -0.716674 -0.706928 -3.277427 -1.1025 -17.745158 -25.308105 0.006096 -18.574879 -138.980553 -83.357985 -43.025411 13.459616 60.645168 27.388422 -113.145109 2.788379 3.130405 -7.588665 -9.105353 13.190048 178.403107 76.170188 -0.214629 7.262042 -47.592106 -29.010709 -89.331846 2.821478 -2.514399 -15.953321 10.606307 -19.861 
314.763611 82.786423 377.457092 90.949706 1.020008 51.956727 154.26082 1.161802 169.161287 -56.141553 -0.839222 2.491316 98.010592 -0.958708 7.736622 21.454551 0.003091 1e-06 151.853506 10.52229 168.93697 -100.156501 -4.604185 4.722546 73.836271 -1.610331 5.08184 21.454568 -0.003111 -1.6e-05 7.684947 -0.467931 -0.786153 5.36346 -0.899206 -1.593059 5.045457 -0.90867 -1.587596 -5.201373 0.890598 -17.884041 -24.194302 0.434382 -18.287111 -158.976546 -84.613948 -22.808614 1.106677 63.00256 15.28762 -107.958496 1.798772 2.975381 -8.686031 -9.568423 20.366574 -177.257411 74.04813 4.189329 13.062448 -50.334318 -28.887042 -84.264898 3.806678 -2.35883 -16.743961 16.080605 -19.063251 
313.135498 82.536423 383.318207 89.992858 0.485637 52.546336 158.541668 0.359502 166.899224 -56.83647 -1.446352 4.032572 100.823298 -1.967464 10.256294 21.454557 0.003086 -1e-06 145.873662 5.156613 170.384984 -100.463203 -4.570054 5.913273 75.558749 -2.778656 4.310663 21.454563 -0.003114 -1.1e-05 7.932184 -0.248522 -1.383662 5.856788 -0.427089 -2.778045 5.539096 -0.443708 -2.775417 -6.408898 2.546919 -17.11738 -24.792118 0.002874 -16.817751 -173.24671 -85.86071 -8.424388 -6.910162 64.919309 6.798333 -108.704612 1.906877 3.000337 -9.488664 -8.257406 22.615313 -171.136072 73.775544 10.468921 21.230767 -51.52221 -32.67014 -85.890175 3.291385 -2.39449 -17.50872 14.912972 -19.137673 
311.661896 83.414268 389.635712 89.961371 -0.223081 52.858824 163.961232 1.757905 164.520146 -53.224249 -0.65977 4.695215 100.58769 -2.265265 11.997224 21.454555 0.003087 -1e-06 140.758287 0.604404 172.91393 -95.18945 -4.425072 6.236263 76.173733 -2.750362 5.47054 21.454555 -0.003111 -1.9e-05 7.832035 0.042084 -2.31733 5.647326 0.196562 -4.629832 5.330338 0.168759 -4.630925 -6.386489 3.415516 -15.466052 -26.130033 -0.600647 -14.640077 -174.032428 -86.727748 -7.641473 -10.818721 65.901422 3.654222 -112.60019 2.958304 3.095466 -9.795286 -10.12785 17.226439 -165.803511 74.593459 15.9404 28.202336 -49.469981 -40.344001 -89.821912 2.856458 -2.538687 -18.819649 14.851784 -19.487947 
310.40979 85.220787 396.681793 90.051932 -0.706693 53.420474 170.053624 4.062104 163.94753 -47.563245 -0.983261 4.883121 94.744368 -1.531743 14.019157 21.454545 0.003098 0.0 138.486306 -2.340602 176.797534 -84.467098 -4.455553 5.400797 75.426687 -1.603414 7.454223 21.454557 -0.003105 -1.8e-05 7.645825 0.435402 -3.317111 5.249663 1.019825 -6.611388 4.933802 0.980108 -6.617393 -6.937293 4.19905 -13.878144 -25.442895 -2.213163 -12.018729 175.015633 -87.739032 3.340171 -11.701666 66.951324 4.139682 -116.172802 3.776812 3.190182 -9.972952 -11.856711 12.784052 -161.230181 75.173233 20.622252 33.183333 -46.312982 -46.631669 -93.14568 2.615425 -2.67038 -18.975485 14.364265 -19.132483 
309.28421 87.418457 404.100006 89.96635 -1.206929 53.856325 175.587921 5.571897 162.645259 -42.034282 -0.770362 6.739208 83.776129 -1.501807 13.805957 21.454553 0.003084 -0.0 138.709667 -4.7136 -179.284611 -69.585626 -3.942119 3.949982 72.467044 0.415554 10.125549 21.454557 -0.003107 -1.8e-05 7.483116 0.938368 -4.139624 4.880563 2.049129 -8.237527 4.565816 1.999654 -8.249628 -8.623174 4.583204 -12.579988 -23.889113 -4.368126 -9.535584 152.247143 -88.36075 26.144924 -11.870205 67.799777 6.029215 -118.404799 4.208949 3.253254 -10.051738 -12.11924 12.06507 -157.522932 75.483002 24.413097 37.567044 -43.614672 -50.431525 -95.384002 2.587248 -2.76866 -18.663251 13.008263 -18.727841 
308.223785 89.480766 411.536987 90.232154 -2.013876 53.896791 178.920931 6.035596 160.43001 -38.544824 0.677673 10.721286 70.679241 -5.836982 4.972378 21.454557 0.00309 -0.0 140.397516 -7.192503 -175.280658 -52.242068 -3.65297 1.80351 67.738872 3.293708 12.602896 21.454562 -0.003112 -1.9e-05 7.181942 1.394532 -4.694892 4.231947 2.958066 -9.339142 3.917986 2.902002 -9.356627 -9.921838 4.72103 -11.558669 -22.868341 -5.979821 -7.709452 128.79088 -88.517209 49.626642 -12.442583 68.081154 8.42338 -119.177594 4.243467 3.282648 -8.886554 -10.743332 13.356875 -157.433934 75.453749 24.504654 42.412951 -41.22124 -52.116317 -96.914039 2.493821 -2.830675 -17.41423 12.510826 -16.930724 
307.360199 90.663406 418.872711 91.904703 -2.739066 53.743285 179.186734 6.673097 159.923552 -38.901602 1.783742 13.71021 61.274481 -14.738906 -10.840681 21.454558 0.00309 -2e-06 142.012542 -8.833797 -171.290653 -36.340691 -3.441 -1.395743 63.991325 6.472965 13.510206 21.454557 -0.00311 -1.4e-05 6.624162 1.500357 -5.042521 3.099352 3.132886 -10.0474 2.786041 3.072601 -10.065872 -11.031471 5.000035 -10.959738 -21.348439 -7.00193 -6.591333 118.340609 -87.980452 60.133709 -12.739899 67.294159 10.975075 -119.398004 4.242179 3.291756 -6.8784 -8.261582 14.499295 -158.125996 75.111064 23.802188 47.585815 -39.275811 -52.830304 -97.746646 2.306246 -2.854862 -16.41652 13.056853 -13.781589 
306.814911 90.592842 425.557587 93.348585 -3.611524 53.01141 177.375245 6.453995 162.264695 -44.421023 0.099851 12.103544 61.537914 -18.111061 -21.242377 21.45455 0.003094 -5e-06 142.691367 -11.143402 -170.594889 -25.571931 -1.68264 -0.387606 57.271184 8.828315 18.098866 21.454555 -0.003103 -1.6e-05 6.148424 1.456436 -5.077234 2.151987 3.004248 -10.130727 1.838846 2.943479 -10.148416 -12.028003 5.823182 -10.851062 -20.241395 -8.14894 -5.749363 116.26154 -87.402782 62.266272 -13.021065 65.727928 13.186633 -119.560699 4.188859 3.302054 -5.436632 -5.824693 15.260398 -158.877194 74.927428 23.035793 53.044414 -38.500424 -52.979083 -98.386198 2.18939 -2.875327 -15.934722 12.47134 -12.959169 
306.222198 89.481178 432.268097 94.433506 -2.237934 51.82892 175.776079 6.028109 160.869164 -54.338096 -1.035714 7.616378 63.514489 -14.523197 -21.65937 21.45455 0.003085 -3e-06 144.43633 -12.525301 -167.952931 -21.968783 -2.175812 2.858499 52.84727 8.618047 20.766058 21.454555 -0.003107 -2e-05 6.18308 1.029969 -4.918505 2.261555 2.153209 -9.818193 1.9483 2.094312 -9.830834 -12.329915 6.275457 -10.97889 -20.490301 -8.517201 -5.539589 112.756868 -87.262476 65.786838 -13.680533 64.347561 14.671204 -119.290797 3.981356 3.305213 -5.081726 -3.992376 15.467993 -156.415184 75.09806 25.55426 57.028705 -39.617696 -53.030214 -98.491724 2.235722 -2.883277 -15.495003 10.823368 -14.062289 
305.493591 87.792091 438.910187 94.081963 -0.283959 50.620489 174.990266 3.559601 156.424036 -65.264937 -0.081367 1.95664 68.2513 -9.376923 -21.727978 21.454545 0.003085 -3e-06 145.964476 -14.042995 -161.626687 -25.58645 -3.339627 2.719088 54.072586 -5.281607 -6.319402 21.454558 -0.003104 -1.7e-05 6.555782 0.689606 -4.632639 3.038673 1.498448 -9.246651 2.724946 1.442959 -9.255418 -10.859526 6.298688 -11.040692 -22.273691 -8.306217 -5.667511 106.076922 -87.230771 72.473962 -13.698393 63.702763 15.887459 -118.300789 3.786159 3.277916 -4.707748 -2.856316 14.581701 -152.866901 75.596841 29.174105 58.464637 -42.156218 -52.245521 -97.67038 2.252923 -2.847719 -14.43135 8.797709 -15.083563 
304.861511 84.446533 445.783386 95.163953 3.004471 49.505006 173.457831 1.470089 151.006426 -77.568689 1.59553 -3.229493 72.412259 -3.184098 -16.987533 21.454555 0.003095 -1e-06 147.694604 -12.011703 -162.137189 -36.197107 -4.321822 5.874682 78.919667 -9.19302 -19.94601 21.45456 -0.003113 -1.9e-05 6.849303 -0.000768 -4.308153 3.680898 0.133694 -8.614146 3.366701 0.08201 -8.614788 -7.609481 5.078271 -11.04186 -26.1181 -7.296676 -6.468334 104.94531 -87.427166 73.587925 -13.284421 63.571255 17.087455 -116.0552 3.46867 3.206421 -4.206293 -2.621979 14.971795 -149.173422 75.859496 32.942603 57.266399 -44.643414 -50.246772 -95.807282 2.301557 -2.767673 -13.878867 7.292025 -15.450163 
304.187286 82.147171 451.262512 94.17555 3.834087 47.48688 169.254082 -4.375793 148.820191 -88.451312 3.083234 -7.12548 74.361929 0.534537 -14.809122 21.454553 0.003094 -3e-06 148.769867 -13.801695 -170.069224 -43.915989 -4.170306 11.11408 92.175411 -9.933259 -18.59427 21.454555 -0.003107 -1.8e-05 7.376187 0.001468 -3.76261 4.734545 0.155604 -7.521999 4.419424 0.110443 -7.522787 -7.603948 3.418657 -10.872658 -27.280976 -5.769539 -7.427636 149.381729 -87.979578 29.039669 -14.54183 63.773408 16.377665 -111.427692 2.528108 3.074961 -4.564489 -2.754647 18.404326 -147.487608 73.906451 34.73169 46.622086 -48.546061 -42.848649 -91.335414 2.499121 -2.581271 -14.713341 9.902064 -14.800482 
303.657593 80.96257 456.352386 92.499182 1.969656 44.222412 162.511292 -11.92869 151.274661 -95.557864 3.297811 -7.234252 74.777785 1.318307 -12.524333 21.454555 0.003102 -8e-06 148.315714 -15.687995 -172.06088 -50.44205 -3.598891 12.279927 97.477762 -9.602022 -16.953802 21.454557 -0.003107 -1.6e-05 7.675952 0.625515 -3.074015 5.302373 1.390284 -6.116723 4.986145 1.353531 -6.124955 -7.999862 3.34164 -10.13801 -28.362704 -5.785325 -6.612365 173.141716 -85.278723 5.293286 -11.308046 64.539625 17.747891 -103.242394 0.576364 2.853377 -6.210271 -5.497244 22.322902 -158.170502 72.382404 23.80284 30.840623 -50.29848 -30.643835 -84.946441 3.257678 -2.350506 -15.765449 15.350447 -14.806506 
